<mxfile host="app.diagrams.net" agent="Mozilla/5.0 (Windows NT 10.0; Win64; x64) AppleWebKit/537.36 (KHTML, like Gecko) Chrome/127.0.0.0 Safari/537.36" version="24.7.7">
  <diagram name="Page-1" id="oHBq4JxuqK4L37u10wNU">
    <mxGraphModel dx="1050" dy="541" grid="1" gridSize="10" guides="1" tooltips="1" connect="1" arrows="1" fold="1" page="1" pageScale="1" pageWidth="850" pageHeight="1100" math="0" shadow="0">
      <root>
        <mxCell id="0" />
        <mxCell id="1" parent="0" />
        <mxCell id="br8Mww4USZ8Wa8Z9AF6Z-7" value="" style="edgeStyle=orthogonalEdgeStyle;rounded=0;orthogonalLoop=1;jettySize=auto;html=1;" edge="1" parent="1" source="br8Mww4USZ8Wa8Z9AF6Z-1" target="br8Mww4USZ8Wa8Z9AF6Z-6">
          <mxGeometry relative="1" as="geometry" />
        </mxCell>
        <mxCell id="br8Mww4USZ8Wa8Z9AF6Z-1" value="Start" style="ellipse;whiteSpace=wrap;html=1;fillColor=#d5e8d4;strokeColor=#82b366;" vertex="1" parent="1">
          <mxGeometry x="340" y="10" width="120" height="80" as="geometry" />
        </mxCell>
        <mxCell id="br8Mww4USZ8Wa8Z9AF6Z-9" value="" style="edgeStyle=orthogonalEdgeStyle;rounded=0;orthogonalLoop=1;jettySize=auto;html=1;" edge="1" parent="1" source="br8Mww4USZ8Wa8Z9AF6Z-2" target="br8Mww4USZ8Wa8Z9AF6Z-3">
          <mxGeometry relative="1" as="geometry" />
        </mxCell>
        <mxCell id="br8Mww4USZ8Wa8Z9AF6Z-2" value="User inputs customer&#39;s last name&amp;nbsp;" style="shape=parallelogram;perimeter=parallelogramPerimeter;whiteSpace=wrap;html=1;fixedSize=1;fillColor=#fff2cc;strokeColor=#d6b656;" vertex="1" parent="1">
          <mxGeometry x="290" y="340" width="220" height="60" as="geometry" />
        </mxCell>
        <mxCell id="br8Mww4USZ8Wa8Z9AF6Z-11" value="" style="edgeStyle=orthogonalEdgeStyle;rounded=0;orthogonalLoop=1;jettySize=auto;html=1;" edge="1" parent="1" source="br8Mww4USZ8Wa8Z9AF6Z-3" target="br8Mww4USZ8Wa8Z9AF6Z-4">
          <mxGeometry relative="1" as="geometry" />
        </mxCell>
        <mxCell id="br8Mww4USZ8Wa8Z9AF6Z-3" value="User inputs number of bathrooms to be cleaned" style="shape=parallelogram;perimeter=parallelogramPerimeter;whiteSpace=wrap;html=1;fixedSize=1;fillColor=#fff2cc;strokeColor=#d6b656;" vertex="1" parent="1">
          <mxGeometry x="260" y="430" width="280" height="60" as="geometry" />
        </mxCell>
        <mxCell id="br8Mww4USZ8Wa8Z9AF6Z-12" value="" style="edgeStyle=orthogonalEdgeStyle;rounded=0;orthogonalLoop=1;jettySize=auto;html=1;" edge="1" parent="1" source="br8Mww4USZ8Wa8Z9AF6Z-4" target="br8Mww4USZ8Wa8Z9AF6Z-5">
          <mxGeometry relative="1" as="geometry" />
        </mxCell>
        <mxCell id="br8Mww4USZ8Wa8Z9AF6Z-4" value="User inputs number of other rooms to be cleaned" style="shape=parallelogram;perimeter=parallelogramPerimeter;whiteSpace=wrap;html=1;fixedSize=1;fillColor=#fff2cc;strokeColor=#d6b656;" vertex="1" parent="1">
          <mxGeometry x="255" y="520" width="290" height="60" as="geometry" />
        </mxCell>
        <mxCell id="br8Mww4USZ8Wa8Z9AF6Z-14" value="" style="edgeStyle=orthogonalEdgeStyle;rounded=0;orthogonalLoop=1;jettySize=auto;html=1;" edge="1" parent="1" source="br8Mww4USZ8Wa8Z9AF6Z-5" target="br8Mww4USZ8Wa8Z9AF6Z-13">
          <mxGeometry relative="1" as="geometry" />
        </mxCell>
        <mxCell id="br8Mww4USZ8Wa8Z9AF6Z-5" value="costOfBathrooms = numberOfBathrooms * Charge_Per_Bathroom" style="rounded=1;whiteSpace=wrap;html=1;fillColor=#f8cecc;strokeColor=#b85450;" vertex="1" parent="1">
          <mxGeometry x="195" y="610" width="410" height="60" as="geometry" />
        </mxCell>
        <mxCell id="br8Mww4USZ8Wa8Z9AF6Z-8" value="" style="edgeStyle=orthogonalEdgeStyle;rounded=0;orthogonalLoop=1;jettySize=auto;html=1;" edge="1" parent="1" source="br8Mww4USZ8Wa8Z9AF6Z-6" target="br8Mww4USZ8Wa8Z9AF6Z-2">
          <mxGeometry relative="1" as="geometry" />
        </mxCell>
        <mxCell id="br8Mww4USZ8Wa8Z9AF6Z-6" value="&lt;div style=&quot;&quot;&gt;&lt;span style=&quot;background-color: initial;&quot;&gt;Declarations:&lt;/span&gt;&lt;/div&gt;&lt;span style=&quot;background-color: initial;&quot;&gt;&lt;div style=&quot;text-align: left;&quot;&gt;&lt;span style=&quot;background-color: initial;&quot;&gt;lastName = &quot;&quot;&lt;/span&gt;&lt;/div&gt;&lt;/span&gt;&lt;span style=&quot;background-color: initial;&quot;&gt;&lt;div style=&quot;text-align: left;&quot;&gt;&lt;span style=&quot;background-color: initial;&quot;&gt;numberOfBathrooms = 0&lt;/span&gt;&lt;/div&gt;&lt;/span&gt;&lt;span style=&quot;background-color: initial;&quot;&gt;&lt;div style=&quot;text-align: left;&quot;&gt;&lt;span style=&quot;background-color: initial;&quot;&gt;numberOfOtherRooms = 0&lt;/span&gt;&lt;/div&gt;&lt;/span&gt;&lt;div&gt;&lt;div style=&quot;text-align: left;&quot;&gt;&lt;span style=&quot;background-color: initial;&quot;&gt;serviceCharge = 0&lt;/span&gt;&lt;/div&gt;&lt;span style=&quot;background-color: initial;&quot;&gt;&lt;div style=&quot;text-align: left;&quot;&gt;&lt;span style=&quot;background-color: initial;&quot;&gt;costOfBathrooms = 0&lt;/span&gt;&lt;/div&gt;&lt;/span&gt;&lt;span style=&quot;background-color: initial;&quot;&gt;&lt;div style=&quot;text-align: left;&quot;&gt;&lt;span style=&quot;background-color: initial;&quot;&gt;costOfOtherRooms = 0&lt;/span&gt;&lt;/div&gt;&lt;/span&gt;&lt;span style=&quot;background-color: initial;&quot;&gt;&lt;div style=&quot;text-align: left;&quot;&gt;&lt;span style=&quot;background-color: initial;&quot;&gt;totalCost = 0&lt;/span&gt;&lt;/div&gt;&lt;/span&gt;&lt;span style=&quot;background-color: initial;&quot;&gt;&lt;div style=&quot;text-align: left;&quot;&gt;&lt;span style=&quot;background-color: initial;&quot;&gt;Base_Charge = 40&lt;/span&gt;&lt;/div&gt;&lt;/span&gt;&lt;span style=&quot;background-color: initial;&quot;&gt;&lt;div style=&quot;text-align: left;&quot;&gt;&lt;span style=&quot;background-color: initial;&quot;&gt;Charge_Per_Bathroom = 15&lt;/span&gt;&lt;/div&gt;&lt;/span&gt;&lt;span style=&quot;background-color: initial;&quot;&gt;&lt;div style=&quot;text-align: left;&quot;&gt;&lt;span style=&quot;background-color: initial;&quot;&gt;Charge_Per_Other_Room = 10&lt;/span&gt;&lt;/div&gt;&lt;/span&gt;&lt;/div&gt;" style="rounded=0;whiteSpace=wrap;html=1;fillColor=#e1d5e7;strokeColor=#9673a6;" vertex="1" parent="1">
          <mxGeometry x="270" y="120" width="260" height="190" as="geometry" />
        </mxCell>
        <mxCell id="br8Mww4USZ8Wa8Z9AF6Z-16" value="" style="edgeStyle=orthogonalEdgeStyle;rounded=0;orthogonalLoop=1;jettySize=auto;html=1;" edge="1" parent="1" source="br8Mww4USZ8Wa8Z9AF6Z-13" target="br8Mww4USZ8Wa8Z9AF6Z-15">
          <mxGeometry relative="1" as="geometry" />
        </mxCell>
        <mxCell id="br8Mww4USZ8Wa8Z9AF6Z-13" value="costOfOtherRooms = numberOfOtherRooms * Charge_Per_Other_Room" style="rounded=1;whiteSpace=wrap;html=1;fillColor=#f8cecc;strokeColor=#b85450;" vertex="1" parent="1">
          <mxGeometry x="175" y="700" width="450" height="60" as="geometry" />
        </mxCell>
        <mxCell id="br8Mww4USZ8Wa8Z9AF6Z-18" value="" style="edgeStyle=orthogonalEdgeStyle;rounded=0;orthogonalLoop=1;jettySize=auto;html=1;" edge="1" parent="1" source="br8Mww4USZ8Wa8Z9AF6Z-15" target="br8Mww4USZ8Wa8Z9AF6Z-17">
          <mxGeometry relative="1" as="geometry" />
        </mxCell>
        <mxCell id="br8Mww4USZ8Wa8Z9AF6Z-15" value="serviceCharge = Base_Charge + costOfBathrooms + costOfOtherRooms" style="rounded=1;whiteSpace=wrap;html=1;fillColor=#f8cecc;strokeColor=#b85450;" vertex="1" parent="1">
          <mxGeometry x="180" y="790" width="440" height="60" as="geometry" />
        </mxCell>
        <mxCell id="br8Mww4USZ8Wa8Z9AF6Z-20" value="" style="edgeStyle=orthogonalEdgeStyle;rounded=0;orthogonalLoop=1;jettySize=auto;html=1;" edge="1" parent="1" source="br8Mww4USZ8Wa8Z9AF6Z-17" target="br8Mww4USZ8Wa8Z9AF6Z-19">
          <mxGeometry relative="1" as="geometry" />
        </mxCell>
        <mxCell id="br8Mww4USZ8Wa8Z9AF6Z-17" value="totalCost = serviceCharge" style="rounded=1;whiteSpace=wrap;html=1;fillColor=#f8cecc;strokeColor=#b85450;" vertex="1" parent="1">
          <mxGeometry x="310" y="880" width="180" height="60" as="geometry" />
        </mxCell>
        <mxCell id="br8Mww4USZ8Wa8Z9AF6Z-22" value="" style="edgeStyle=orthogonalEdgeStyle;rounded=0;orthogonalLoop=1;jettySize=auto;html=1;" edge="1" parent="1" source="br8Mww4USZ8Wa8Z9AF6Z-19" target="br8Mww4USZ8Wa8Z9AF6Z-21">
          <mxGeometry relative="1" as="geometry" />
        </mxCell>
        <mxCell id="br8Mww4USZ8Wa8Z9AF6Z-19" value="&lt;div style=&quot;text-align: justify;&quot;&gt;&lt;span style=&quot;background-color: initial;&quot;&gt;Print Customer&#39;s last name,&amp;nbsp;&lt;/span&gt;&lt;/div&gt;&lt;div style=&quot;text-align: justify;&quot;&gt;Print Number of bathrooms,&amp;nbsp;&lt;/div&gt;&lt;div style=&quot;text-align: justify;&quot;&gt;Print Cost of bathrooms,&amp;nbsp;&lt;/div&gt;&lt;div style=&quot;text-align: justify;&quot;&gt;Print Number of other rooms,&amp;nbsp;&lt;/div&gt;&lt;div style=&quot;text-align: justify;&quot;&gt;Print Cost of other rooms,&amp;nbsp;&lt;/div&gt;&lt;div style=&quot;text-align: justify;&quot;&gt;Print Total cost,&lt;/div&gt;&lt;div style=&quot;text-align: justify;&quot;&gt;Print Thank You for Using Hazel&#39;s Cleaning Service Estimator Program&lt;/div&gt;" style="shape=parallelogram;perimeter=parallelogramPerimeter;whiteSpace=wrap;html=1;fixedSize=1;fillColor=#fff2cc;strokeColor=#d6b656;align=center;" vertex="1" parent="1">
          <mxGeometry x="180" y="970" width="432.5" height="130" as="geometry" />
        </mxCell>
        <mxCell id="br8Mww4USZ8Wa8Z9AF6Z-21" value="Stop" style="ellipse;whiteSpace=wrap;html=1;fillColor=#d5e8d4;strokeColor=#82b366;" vertex="1" parent="1">
          <mxGeometry x="340" y="1130" width="120" height="80" as="geometry" />
        </mxCell>
      </root>
    </mxGraphModel>
  </diagram>
</mxfile>
